# xmcd CD database file generated by OrangeCD 6.4
#
# Track frame offsets:
#	150
#	14292
#	31500
#	46712
#	65304
#	79202
#	93232
#	107893
#	127632
#	139162
#	158552
#	175785
#	194376
#	209498
#	229559
#	249705
#	261750
#
# Disc length: 3754 seconds
#
# Revision: 0
# Processed by: cddbd v1.5.2PL0 Copyright (c) Steve Scherf et al.
# Submitted via: OrangeCD 6.4
#
DISCID=d10ea811
DTITLE=Old 97's - Too Far To Care [Deluxe Edition]
DYEAR=1997
DGENRE=Alt-Country
TTITLE0=Timebomb
TTITLE1=Barrier Reef
TTITLE2=Broadway
TTITLE3=Salome
TTITLE4=W. TX Teardrops
TTITLE5=Melt Show
TTITLE6=Streets Of Where I'm From
TTITLE7=Big Brown Eyes
TTITLE8=Just Like California
TTITLE9=Curtain Calls
TTITLE10=Niteclub
TTITLE11=House That Used To Be
TTITLE12=Four Leaf Clover
TTITLE13=Northern Line
TTITLE14=Beer Cans
TTITLE15=No Doubt About It
TTITLE16=Holy Cross
EXTD=
EXTT0=
EXTT1=
EXTT2=
EXTT3=
EXTT4=
EXTT5=
EXTT6=
EXTT7=
EXTT8=
EXTT9=
EXTT10=
EXTT11=
EXTT12=
EXTT13=
EXTT14=
EXTT15=
EXTT16=
PLAYORDER=
